<?xml version="1.0" standalone="no"?><!DOCTYPE svg PUBLIC "-//W3C//DTD SVG 1.1//EN" "http://www.w3.org/Graphics/SVG/1.1/DTD/svg11.dtd"><svg t="1627028670287" class="icon" viewBox="0 0 1024 1024" version="1.1" xmlns="http://www.w3.org/2000/svg" p-id="2012" xmlns:xlink="http://www.w3.org/1999/xlink" width="128" height="128"><defs><style type="text/css">@font-face { font-family: feedback-iconfont; src: url("//at.alicdn.com/t/font_1031158_1uhr8ri0pk5.eot?#iefix") format("embedded-opentype"), url("//at.alicdn.com/t/font_1031158_1uhr8ri0pk5.woff2") format("woff2"), url("//at.alicdn.com/t/font_1031158_1uhr8ri0pk5.woff") format("woff"), url("//at.alicdn.com/t/font_1031158_1uhr8ri0pk5.ttf") format("truetype"), url("//at.alicdn.com/t/font_1031158_1uhr8ri0pk5.svg#iconfont") format("svg"); }
</style></defs><path d="M897.4 550.8s0-3.6-0.1-0.4c-5.1 216-181.8 379.5-399.1 379.5C277.7 929.9 99 751.2 99 530.7 99 315 261.4 139 475.3 131.5c4.7-0.2 12.8 7 12.8 7l1.9 5 0.3 4.5 0.3 3.9-2.2 386.2 395.5-1.4 12.5 10.4 1 3.7z" fill="#ffffff" p-id="2013"></path><path d="M909.3 487.8l-352-0.2-11.2-6-2-7.3 0.7-353.8 2-4.7s3.2-5.1 8.4-7.2c1.8-0.7 5.6-0.5 7.2-0.3 191 17.4 343.1 169.4 360.8 360.3 0.2 2 0.3 5.8 0.3 5.8l-3.1 8.5-11.1 4.9z" fill="#ffffff" p-id="2014"></path><path d="M476.5 145m-13.6 0a13.6 13.6 0 1 0 27.2 0 13.6 13.6 0 1 0-27.2 0Z" fill="#ffffff" p-id="2015"></path><path d="M557.3 474.3m-13.6 0a13.6 13.6 0 1 0 27.2 0 13.6 13.6 0 1 0-27.2 0Z" fill="#ffffff" p-id="2016"></path><path d="M558.3 121.7m-13.6 0a13.6 13.6 0 1 0 27.2 0 13.6 13.6 0 1 0-27.2 0Z" fill="#ffffff" p-id="2017"></path><path d="M910 474.3m-13.6 0a13.6 13.6 0 1 0 27.2 0 13.6 13.6 0 1 0-27.2 0Z" fill="#ffffff" p-id="2018"></path><path d="M897.4 550.4c0 1.8-0.4 3.5-1 5.1-2 5-6.9 8.5-12.6 8.5-7.5 0-13.6-6.1-13.6-13.6s6.1-13.6 13.6-13.6 13.6 6.1 13.6 13.6zM488.5 520.4s-2.6 17.2 17.1 17.7v15.2s-32.7-6-33.5-6.5 4.3-26.4 4.3-26.4h12.1z" fill="#ffffff" p-id="2019"></path></svg>