<?xml version="1.0" standalone="no"?><!DOCTYPE svg PUBLIC "-//W3C//DTD SVG 1.1//EN" "http://www.w3.org/Graphics/SVG/1.1/DTD/svg11.dtd"><svg t="1627028796543" class="icon" viewBox="0 0 1024 1024" version="1.1" xmlns="http://www.w3.org/2000/svg" p-id="5844" xmlns:xlink="http://www.w3.org/1999/xlink" width="128" height="128"><defs><style type="text/css">@font-face { font-family: feedback-iconfont; src: url("//at.alicdn.com/t/font_1031158_1uhr8ri0pk5.eot?#iefix") format("embedded-opentype"), url("//at.alicdn.com/t/font_1031158_1uhr8ri0pk5.woff2") format("woff2"), url("//at.alicdn.com/t/font_1031158_1uhr8ri0pk5.woff") format("woff"), url("//at.alicdn.com/t/font_1031158_1uhr8ri0pk5.ttf") format("truetype"), url("//at.alicdn.com/t/font_1031158_1uhr8ri0pk5.svg#iconfont") format("svg"); }
</style></defs><path d="M40.96 1024h942.08a40.96 40.96 0 0 0 40.96-40.96V40.96a40.96 40.96 0 0 0-40.96-40.96H40.96A40.96 40.96 0 0 0 0 40.96v942.08a40.96 40.96 0 0 0 40.96 40.96zM696.32 215.04A10.24 10.24 0 0 1 704 204.8h102.4a10.24 10.24 0 0 1 10.24 10.24v593.92a10.24 10.24 0 0 1-10.24 10.24H704a10.24 10.24 0 0 1-10.24-10.24zM448 576a10.24 10.24 0 0 1 10.24-10.24h102.4A10.24 10.24 0 0 1 576 576v235.52a10.24 10.24 0 0 1-10.24 10.24H460.8a10.24 10.24 0 0 1-12.8-12.8zM204.8 481.28a10.24 10.24 0 0 1 10.24-10.24H320a10.24 10.24 0 0 1 10.24 10.24v327.68a10.24 10.24 0 0 1-10.24 10.24H215.04a10.24 10.24 0 0 1-10.24-10.24z" p-id="5845" fill="#ffffff"></path></svg>